<svg width="200" height="200" viewBox="0 0 200 200" fill="none" xmlns="http://www.w3.org/2000/svg">
<path d="M90.5 5.48483C96.3786 2.09081 103.621 2.0908 109.5 5.48483L177.103 44.5152C182.981 47.9092 186.603 54.1816 186.603 60.9697L186.603 139.03C186.603 145.818 182.981 152.091 177.103 155.485L109.5 194.515C103.621 197.909 96.3786 197.909 90.5 194.515L22.8975 155.485C17.0188 152.091 13.3975 145.818 13.3975 139.03L13.3975 60.9697C13.3975 54.1816 17.0188 47.9092 22.8975 44.5152L90.5 5.48483Z" fill="#3D5AFE"/>
<path d="M83.2379 113.735C79.5876 110.085 76.692 105.751 74.7165 100.982C72.741 96.2123 71.7242 91.1005 71.7242 85.9382C71.7242 80.7759 72.741 75.6642 74.7165 70.8948C76.692 66.1255 79.5876 61.7919 83.2379 58.1416C86.8882 54.4913 91.2218 51.5957 95.9911 49.6202C100.76 47.6447 105.872 46.6279 111.035 46.6279C116.197 46.6279 121.309 47.6447 126.078 49.6202C130.847 51.5957 135.181 54.4913 138.831 58.1416L111.035 85.9382L83.2379 113.735Z" fill="white"/>
<path d="M119.252 88.2175C122.902 91.8678 125.798 96.2014 127.773 100.971C129.749 105.74 130.766 110.852 130.766 116.014C130.766 121.176 129.749 126.288 127.773 131.058C125.798 135.827 122.902 140.16 119.252 143.811C115.602 147.461 111.268 150.357 106.499 152.332C101.729 154.308 96.6176 155.324 91.4553 155.324C86.293 155.324 81.1812 154.308 76.4119 152.332C71.6425 150.357 67.309 147.461 63.6587 143.811L91.4553 116.014L119.252 88.2175Z" fill="white"/>
</svg>
