<svg width="269" height="271" viewBox="0 0 269 271" fill="none" xmlns="http://www.w3.org/2000/svg">
<g clip-path="url(#clip0)">
<rect width="269" height="271"/>
<path d="M0 32C0 14.3269 14.3269 0 32 0H237C254.673 0 269 14.3269 269 32V140H0V32Z" fill="#1967D2"/>
<path d="M269 134.5C269 153.9 264.893 172.341 257.5 189C253.389 198.265 248.262 206.979 242.26 215C217.731 247.782 178.593 269 134.5 269C60.2177 269 0 208.782 0 134.5C0 60.2177 60.2177 0 134.5 0C208.782 0 269 60.2177 269 134.5Z" fill="#1967D2"/>
<path d="M127.426 53L132.288 68.7722C125.806 70.908 110.799 80.4042 102.632 101.302L36.9999 73.2082L92 124.5C92 124.5 77 154.5 71.0313 171.785C67.9649 180.664 67.4847 193.403 72.6472 201.5C77.5335 209.163 87.4748 212.669 105.063 204.808L142.011 180.656L146.387 178.192C148.98 216.144 132.58 280.909 46.237 236.352C78.3237 267.075 178.313 304.712 242 215.5C285.286 97.752 182.411 57.8267 127.426 53Z" fill="#F8F9FA"/>
<path d="M194.517 119.046C208.518 171.883 168.264 180.492 146.387 178.192C148.98 216.144 132.58 280.909 46.2371 236.352C184.793 308.313 223.2 167.841 194.517 119.046Z" fill="#DADCE0"/>
<path d="M126.349 127.387C122.497 130.651 121.78 136.134 124.746 139.635L138.694 127.819C135.727 124.317 130.2 124.124 126.349 127.387Z" fill="#1967D2"/>

</g>
<defs>
<clipPath id="clip0">
<rect width="269" height="271" />
</clipPath>
</defs>
</svg>
