<svg width="152" height="152" viewBox="0 0 152 152" fill="none" xmlns="http://www.w3.org/2000/svg">
<path d="M68.7795 4.16799C73.2473 1.58854 78.7515 1.58853 83.2195 4.16799L134.598 33.8311C139.065 36.4105 141.818 41.1775 141.818 46.3365V105.662C141.818 110.821 139.065 115.589 134.598 118.168L83.2195 147.831C78.7515 150.41 73.2473 150.41 68.7795 147.831L17.4016 118.168C12.9338 115.589 10.1816 110.821 10.1816 105.662V46.3365C10.1816 41.1775 12.9338 36.4105 17.4016 33.8311L68.7795 4.16799Z" fill="#3D5AFE"/>
<path d="M63.2612 86.4389C60.4869 83.6649 58.2863 80.3711 56.7849 76.7466C55.2835 73.1216 54.5107 69.2367 54.5107 65.3133C54.5107 61.39 55.2835 57.5051 56.7849 53.8803C58.2863 50.2557 60.4869 46.9621 63.2612 44.1879C66.0354 41.4137 69.3289 39.213 72.9536 37.7116C76.5779 36.2103 80.4631 35.4375 84.387 35.4375C88.3101 35.4375 92.1952 36.2103 95.8196 37.7116C99.4441 39.213 102.738 41.4137 105.512 44.1879L84.387 65.3133L63.2612 86.4389Z" fill="white"/>
<path d="M90.6318 67.0449C93.4058 69.8191 95.6067 73.1127 97.1077 76.7376C98.6095 80.362 99.3824 84.2471 99.3824 88.1703C99.3824 92.0934 98.6095 95.9785 97.1077 99.6037C95.6067 103.228 93.4058 106.521 90.6318 109.296C87.8578 112.07 84.5639 114.271 80.9395 115.772C77.3143 117.274 73.4296 118.046 69.5063 118.046C65.5829 118.046 61.698 117.274 58.0733 115.772C54.4486 114.271 51.1551 112.07 48.3809 109.296L69.5063 88.1703L90.6318 67.0449Z" fill="white"/>
</svg>
